<?xml version="1.0" encoding="UTF-8"?>
<svg width="60px" height="60px" viewBox="0 0 60 60" version="1.1" xmlns="http://www.w3.org/2000/svg" xmlns:xlink="http://www.w3.org/1999/xlink">
    <!-- Generator: Sketch 52.3 (67297) - http://www.bohemiancoding.com/sketch -->
    <title>f</title>
    <desc>Created with Sketch.</desc>
    <g id="Page-1" stroke="none" stroke-width="1" fill="none" fill-rule="evenodd">
        <g id="1.-LOGIN-GALAXI" transform="translate(-104.000000, -214.000000)" stroke="#979797">
            <g id="f" transform="translate(104.000000, 214.000000)">
                <circle id="Oval" stroke="none" fill="#05282F" cx="30" cy="30" r="30"></circle>
                <path d="M31.9847131,26.1097094 L31.9847131,23.9771562 C31.9847131,23.6570181 32.0000365,23.4090505 32.0311759,23.2338845 C32.0622058,23.0584556 32.1328031,22.8859198 32.2423656,22.7155933 C32.351764,22.5453719 32.5289139,22.4278582 32.7735415,22.3627365 C33.0184976,22.2975095 33.3440111,22.2650012 33.7504104,22.2650012 L35.96897,22.2650012 L35.96897,18 L32.4221971,18 C30.3699515,18 28.8960013,18.4680034 28.0001277,19.4040102 C27.1043635,20.3402274 26.6565362,21.7192515 26.6565362,23.5416085 L26.6565362,26.1096568 L24,26.1096568 L24,30.3749737 L26.656372,30.3749737 L26.656372,42.75 L31.9846583,42.75 L31.9846583,30.3750263 L35.5312124,30.3750263 L36,26.1097094 L31.9847131,26.1097094 Z" id="Path" stroke="none" fill="#F1EFED"></path>
            </g>
        </g>
    </g>
</svg>