<?xml version="1.0" encoding="UTF-8"?>
<svg width="60px" height="60px" viewBox="0 0 60 60" version="1.1" xmlns="http://www.w3.org/2000/svg" xmlns:xlink="http://www.w3.org/1999/xlink">
    <!-- Generator: Sketch 52.3 (67297) - http://www.bohemiancoding.com/sketch -->
    <title>google</title>
    <desc>Created with Sketch.</desc>
    <g id="Page-1" stroke="none" stroke-width="1" fill="none" fill-rule="evenodd">
        <g id="1.-LOGIN-GALAXI" transform="translate(-196.000000, -214.000000)">
            <g id="google" transform="translate(196.000000, 214.000000)">
                <circle id="Oval-Copy" fill="#05282F" cx="30" cy="30" r="30"></circle>
                <path d="M36.1231372,32.1882938 C35.2829683,37.7891094 31.168049,41 25.8405827,41 C19.8537461,41 15,36.0745338 15,29.9992342 C15,23.9254662 19.8537461,19 25.8405827,19 C28.736594,19 31.2741348,20.0487443 33.1211479,21.8692227 L30.0100542,25.0262867 C28.9564201,23.9490974 27.5145596,23.3749465 25.8405827,23.3749465 C22.3164662,23.3749465 19.4593745,26.4244667 19.4593745,29.9991248 C19.4593745,33.5769556 22.3164662,36.5379681 25.8405827,36.5379681 C28.7942728,36.5379681 31.0310216,35.0891342 31.6762687,32.1882938 L25.8405827,32.1882938 L25.8405827,27.7705704 L36.0967235,27.7705704 C36.2198434,28.4823512 36.282158,29.2272813 36.282158,29.9991248 C36.2820502,30.7647322 36.2274979,31.4939082 36.1231372,32.1882938 Z" id="Path" fill="#FFFFFF"></path>
                <polygon id="Path" fill="#FFFFFF" points="48.2950605 30.5942016 44.4965657 30.5942016 44.4965657 34.4471829 41.7984948 34.4471829 41.7984948 30.5942016 38 30.5942016 38 27.8546223 41.7984948 27.8546223 41.7984948 24 44.4965657 24 44.4965657 27.8546223 48.2950605 27.8546223 48.2950605 30.5942016"></polygon>
            </g>
        </g>
    </g>
</svg>