<?xml version="1.0" encoding="UTF-8"?>
<svg width="16px" height="20px" viewBox="0 0 16 20" version="1.1" xmlns="http://www.w3.org/2000/svg" xmlns:xlink="http://www.w3.org/1999/xlink">
    <!-- Generator: Sketch 52.3 (67297) - http://www.bohemiancoding.com/sketch -->
    <title>BTN</title>
    <desc>Created with Sketch.</desc>
    <g id="DISEÑO-APP" stroke="none" stroke-width="1" fill="none" fill-rule="evenodd">
        <g id="location" fill="#01111A" fill-rule="nonzero">
            <path d="M7.99581809,0 C3.58808155,0 0,3.59748428 0,8.01677149 C0,8.51991614 0.0460010455,9.02725367 0.14218505,9.52201258 C0.146366963,9.55136268 0.163094616,9.639413 0.196549922,9.79035639 C0.317825405,10.3312369 0.497647674,10.8637317 0.731834814,11.3710692 C1.59330894,13.4046122 3.48771563,16.5283019 7.64453738,19.8742138 C7.74908521,19.9580713 7.8745426,20 8,20 C8.1254574,20 8.25091479,19.9580713 8.35546262,19.8742138 C12.5081025,16.5283019 14.4066911,13.4046122 15.2681652,11.3710692 C15.5023523,10.8637317 15.6821746,10.3354298 15.8034501,9.79035639 C15.8369054,9.639413 15.853633,9.55136268 15.857815,9.52201258 C15.949817,9.02725367 16,8.51991614 16,8.01677149 C15.9916362,3.59748428 12.4035546,0 7.99581809,0 Z M14.7370622,9.32494759 C14.7370622,9.33333333 14.7328803,9.34171908 14.7328803,9.35010482 C14.7286984,9.37106918 14.7161526,9.43396226 14.6952431,9.53039832 C14.6952431,9.53459119 14.6952431,9.53459119 14.6952431,9.53878407 C14.5906952,10.0083857 14.4359645,10.4654088 14.2310507,10.9056604 C14.2268688,10.9098532 14.2268688,10.918239 14.2226869,10.9224319 C13.4406691,12.7798742 11.7260847,15.6142558 7.99581809,18.7044025 C4.26555149,15.6142558 2.55096707,12.7798742 1.76894929,10.9224319 C1.76476738,10.918239 1.76476738,10.9098532 1.76058547,10.9056604 C1.55985363,10.4696017 1.40512284,10.0083857 1.2963931,9.53878407 C1.2963931,9.53459119 1.2963931,9.53459119 1.2963931,9.53039832 C1.27130162,9.43396226 1.26293779,9.37106918 1.25875588,9.35010482 C1.25875588,9.34171908 1.25457397,9.33333333 1.25457397,9.32075472 C1.1709357,8.88888889 1.12911657,8.45283019 1.12911657,8.01257862 C1.12911657,4.21802935 4.21118662,1.1278826 7.99581809,1.1278826 C11.7804496,1.1278826 14.8625196,4.21802935 14.8625196,8.01257862 C14.8625196,8.45702306 14.8207005,8.89727463 14.7370622,9.32494759 Z" id="Shape"></path>
            <path d="M8,2.85714286 C5.19454845,2.85714286 2.90909091,5.10178866 2.90909091,7.85714286 C2.90909091,10.6124971 5.19454845,12.8571429 8,12.8571429 C10.8054516,12.8571429 13.0909091,10.6124971 13.0909091,7.85714286 C13.0909091,5.10178866 10.8054516,2.85714286 8,2.85714286 Z M8,11.7451165 C5.81518646,11.7451165 4.04133593,9.99882325 4.04133593,7.85714286 C4.04133593,5.71546246 5.81937996,3.96916922 8,3.96916922 C10.18062,3.96916922 11.9586641,5.71546246 11.9586641,7.85714286 C11.9586641,9.99882325 10.1848135,11.7451165 8,11.7451165 Z" id="Shape"></path>
        </g>
    </g>
</svg>