<?xml version="1.0" encoding="UTF-8"?>
<svg width="19px" height="20px" viewBox="0 0 19 20" version="1.1" xmlns="http://www.w3.org/2000/svg" xmlns:xlink="http://www.w3.org/1999/xlink">
    <!-- Generator: Sketch 52.3 (67297) - http://www.bohemiancoding.com/sketch -->
    <title>phone-hotel</title>
    <desc>Created with Sketch.</desc>
    <g id="DISEÑO-APP" stroke="none" stroke-width="1" fill="none" fill-rule="evenodd">
        <g id="phone-hotel" fill="#01111A" fill-rule="nonzero">
            <path d="M15.9944521,11.3766187 C15.5797464,10.9448116 15.0795343,10.7139445 14.549395,10.7139445 C14.023531,10.7139445 13.5190435,10.9405363 13.0872365,11.3723434 L11.7362363,12.7190682 C11.6250781,12.6592138 11.5139198,12.6036347 11.4070369,12.5480555 C11.2531255,12.4710998 11.1077647,12.3984194 10.9837805,12.3214637 C9.71828668,11.5177041 8.5682264,10.4702515 7.4651946,9.11497595 C6.93077997,8.43947586 6.57165334,7.87085869 6.310859,7.29369089 C6.66143499,6.97304211 6.98635909,6.63956738 7.30273255,6.3189186 C7.42244143,6.19920972 7.54215031,6.07522553 7.66185918,5.95551665 C8.55967576,5.05770007 8.55967576,3.89481383 7.66185918,2.99699725 L6.49469763,1.8298357 C6.3621628,1.69730087 6.22535265,1.56049072 6.09709314,1.42368058 C5.84057412,1.15861092 5.57122915,0.884990629 5.29333354,0.628471606 C4.87862778,0.21804117 4.38269101,-5.15143483e-14 3.86110233,-5.15143483e-14 C3.33951365,-5.15143483e-14 2.83502623,0.21804117 2.40749453,0.628471606 C2.40321921,0.632746923 2.40321921,0.632746923 2.39894389,0.63702224 L0.945336097,2.10345599 C0.398095515,2.65069657 0.0859973701,3.31764603 0.0175922973,4.09147842 C-0.0850153119,5.339871 0.282661954,6.50275723 0.56483288,7.26376367 C1.25743424,9.13207722 2.29206097,10.8635806 3.83545042,12.7190682 C5.70803929,14.955059 7.96113138,16.720765 10.5348722,17.9648822 C11.5181952,18.4308918 12.8307175,18.9824077 14.2971512,19.0764647 C14.3869329,19.08074 14.4809899,19.0850153 14.5664962,19.0850153 C15.5540945,19.0850153 16.383506,18.730164 17.0333542,18.0247367 C17.0376295,18.016186 17.0461801,18.0119107 17.0504554,18.0033601 C17.2727719,17.7340151 17.5292909,17.4903221 17.7986359,17.2295277 C17.9824745,17.0542397 18.1705885,16.8704011 18.3544271,16.6780118 C18.7776835,16.2376542 19,15.7246161 19,15.1987521 C19,14.6686128 18.7734082,14.1598501 18.3416012,13.7323184 L15.9944521,11.3766187 Z M17.5250156,15.8785275 C17.5207403,15.8785275 17.5207403,15.8828028 17.5250156,15.8785275 C17.3582783,16.0580908 17.1872656,16.2205529 17.0034269,16.4001162 C16.7255313,16.6651859 16.4433604,16.9430815 16.1782907,17.2551796 C15.7464837,17.7169139 15.237721,17.934955 14.5707715,17.934955 C14.5066418,17.934955 14.4382367,17.934955 14.374107,17.9306797 C13.1043378,17.8494487 11.9243503,17.3535119 11.0393597,16.9302555 C8.6195302,15.7588186 6.49469763,14.0957203 4.72899169,11.987989 C3.27110857,10.2308337 2.29633628,8.60621322 1.65076341,6.86188387 C1.25315892,5.79732992 1.10779815,4.96791841 1.1719279,4.18553539 C1.21468107,3.6853233 1.40707034,3.27061754 1.76192165,2.91576623 L3.21980477,1.45788311 C3.4292953,1.26121853 3.65161179,1.1543356 3.86965296,1.1543356 C4.13899793,1.1543356 4.3570391,1.31679765 4.49384925,1.4536078 C4.49812457,1.45788311 4.50239988,1.46215843 4.5066752,1.46643375 C4.76746954,1.71012682 5.01543793,1.96237053 5.27623227,2.2317155 C5.4087671,2.36852565 5.54557724,2.50533579 5.68238739,2.64642125 L6.84954894,3.81358281 C7.30273255,4.26676642 7.30273255,4.68574749 6.84954894,5.13893109 C6.72556475,5.26291529 6.60585587,5.38689948 6.48187168,5.50660836 C6.12274504,5.87428563 5.78071968,6.21631099 5.4087671,6.54978572 C5.40021646,6.55833635 5.39166583,6.56261167 5.38739051,6.57116231 C5.01971325,6.93883957 5.08811832,7.2979662 5.16507403,7.54165928 C5.16934934,7.55448523 5.17362466,7.56731118 5.17789998,7.58013713 C5.48144749,8.31549166 5.90897919,9.00809302 6.55882738,9.83322922 L6.5631027,9.83750453 C7.74309021,11.2911123 8.98720747,12.4240713 10.3595842,13.2919607 C10.5348722,13.403119 10.7144356,13.4929006 10.8854482,13.578407 C11.0393597,13.6553627 11.1847204,13.728043 11.3087046,13.8049988 C11.3258059,13.8135494 11.3429072,13.8263753 11.3600084,13.834926 C11.5053692,13.9076064 11.6421794,13.9418089 11.7832648,13.9418089 C12.1381161,13.9418089 12.3604326,13.7194924 12.433113,13.646812 L13.8952714,12.1846536 C14.0406322,12.0392928 14.2714993,11.8640048 14.5408443,11.8640048 C14.805914,11.8640048 15.0239551,12.0307422 15.15649,12.176103 C15.1607653,12.1803783 15.1607653,12.1803783 15.1650406,12.1846536 L17.5207403,14.5403533 C17.961098,14.9764356 17.961098,15.4253439 17.5250156,15.8785275 Z" id="Shape"></path>
        </g>
    </g>
</svg>