<?xml version="1.0" encoding="UTF-8"?>
<svg width="22px" height="20px" viewBox="0 0 22 20" version="1.1" xmlns="http://www.w3.org/2000/svg" xmlns:xlink="http://www.w3.org/1999/xlink">
    <!-- Generator: Sketch 52.3 (67297) - http://www.bohemiancoding.com/sketch -->
    <title>HEART</title>
    <desc>Created with Sketch.</desc>
    <g id="DISEÑO-APP" stroke="none" stroke-width="1" fill="none" fill-rule="evenodd">
        <g id="HEART" fill="#C7C7C7" fill-rule="nonzero">
            <path d="M20.2230015,1.79734748 C19.0710008,0.644244032 17.5458825,0.014005305 15.9181568,0.014005305 C14.2904311,0.014005305 12.7606488,0.648912467 11.6086481,1.80201592 L11.0069959,2.40424403 L10.3960157,1.79267905 C9.24401502,0.639575597 7.70956874,-1.63424829e-13 6.08184304,-1.63424829e-13 C4.45878131,-1.63424829e-13 2.928999,0.634907162 1.78166226,1.78334218 C0.629661553,2.93644562 -0.00463843189,4.46769231 2.55385831e-05,6.09697613 C2.55385831e-05,7.72625995 0.638989494,9.2528382 1.7909902,10.4059416 L10.5499268,19.1732626 C10.67119,19.2946419 10.834429,19.36 10.993004,19.36 C11.1515789,19.36 11.3148179,19.2993103 11.4360811,19.177931 L20.2136736,10.4246154 C21.3656743,9.27151194 21.9999743,7.74026525 21.9999743,6.11098143 C22.0046382,4.48169761 21.3750022,2.95045093 20.2230015,1.79734748 Z M19.3275192,9.5329443 L10.993004,17.8427586 L2.67714459,9.51893899 C1.76300638,8.60392573 1.25929757,7.39013263 1.25929757,6.09697613 C1.25929757,4.80381963 1.75834241,3.59002653 2.67248062,2.6796817 C3.58195486,1.76933687 4.79458719,1.26514589 6.08184304,1.26514589 C7.37376286,1.26514589 8.59105916,1.76933687 9.50519737,2.68435013 L10.5592547,3.73941645 C10.8064451,3.9868435 11.2028826,3.9868435 11.4500731,3.73941645 L12.4948024,2.693687 C13.4089407,1.77867374 14.626237,1.27448276 15.9134928,1.27448276 C17.2007487,1.27448276 18.413381,1.77867374 19.3275192,2.68901857 C20.2416574,3.60403183 20.7407022,4.81782493 20.7407022,6.11098143 C20.7453662,7.40413793 20.2416574,8.61793103 19.3275192,9.5329443 Z" id="Shape"></path>
        </g>
    </g>
</svg>