<?xml version="1.0" encoding="UTF-8"?>
<svg width="16px" height="21px" viewBox="0 0 16 21" version="1.1" xmlns="http://www.w3.org/2000/svg" xmlns:xlink="http://www.w3.org/1999/xlink">
    <!-- Generator: sketchtool 52.3 (67297) - http://www.bohemiancoding.com/sketch -->
    <title>DA5CADC3-8018-4DB8-B090-F4422AA18E9F</title>
    <desc>Created with sketchtool.</desc>
    <g id="DISEÑO-APP-TM" stroke="none" stroke-width="1" fill="none" fill-rule="evenodd">
        <g id="2.2-NOTIFICACIÓN-CUENTA-CREADA" transform="translate(-180.000000, -620.000000)" fill="#FFFFFF" fill-rule="nonzero">
            <g id="MENU-PRINCIPAL" transform="translate(0.000000, 607.000000)">
                <g id="DESTINOS" transform="translate(161.000000, 13.000000)">
                    <g id="destinos" transform="translate(19.000000, 0.000000)">
                        <path d="M15.8689278,20.1553571 L13.0710418,14.3294484 C13.0152076,14.2132004 12.9184615,14.1241272 12.8024407,14.0755307 L11.4105236,13.465565 L13.8223371,9.48652744 C13.8280988,9.47697951 13.8335288,9.46730918 13.8387102,9.45743482 C14.3182128,8.53614143 14.561363,7.54058638 14.561363,6.49859739 C14.561363,4.74573664 13.8630832,3.10243223 12.5951454,1.87144324 C11.3274148,0.640739875 9.64791224,-0.023983571 7.86615059,0.000661506673 C6.13566354,0.0242865067 4.50631639,0.708513838 3.27817131,1.9273843 C2.05015059,3.14617316 1.3682024,4.75557019 1.35792261,6.45922239 C1.35162209,7.50031371 1.60152882,8.5370391 2.0804511,9.45739402 C2.085591,9.46722757 2.09102105,9.47693871 2.09678271,9.48648664 L4.50855473,13.4654834 L3.10859618,14.0787949 C2.99406768,14.1289419 2.90163245,14.2178519 2.84807805,14.3294076 L0.0502749381,20.1553571 C-0.0433623676,20.3501919 -0.00385977692,20.581872 0.149259394,20.7359853 C0.302337114,20.8900987 0.536616907,20.9342476 0.736699809,20.8466026 L4.24169463,19.3105287 L7.74668945,20.8466026 C7.88227494,20.9059711 8.03709359,20.9059711 8.17267908,20.8466026 L11.6776739,19.3105287 L15.1826687,20.8466026 C15.2511454,20.8765929 15.3236428,20.8912004 15.3955185,20.8912004 C15.533591,20.8912004 15.6694252,20.8374219 15.7701091,20.7360261 C15.923104,20.581872 15.9625651,20.3502736 15.8689278,20.1553571 Z M3.00513504,8.9728571 C2.60181898,8.19221202 2.39999515,7.34868936 2.4053423,6.46538366 C2.42308323,3.51005529 4.87937338,1.07243677 7.88074126,1.03151125 C9.37985007,1.01168094 10.7931972,1.57007148 11.8597257,2.60553197 C12.9265858,3.64123728 13.5140677,5.02380982 13.5140677,6.49863819 C13.5140677,7.37015179 13.3122439,8.20245361 12.9141506,8.9728571 L8.40936302,16.4050618 C8.27182934,16.6319271 8.04907287,16.6564089 7.95966354,16.6564089 C7.87021276,16.6564089 7.64745629,16.6319271 7.50996406,16.4050618 L3.00513504,8.9728571 Z M11.8905651,18.2753539 C11.7549796,18.2159853 11.6001609,18.2159853 11.4645755,18.2753539 L7.95958064,19.8114277 L4.45458582,18.2753539 C4.31900033,18.2159853 4.16418167,18.2159853 4.02859618,18.2753539 L1.60049255,19.3394989 L3.71191224,14.9430048 L5.04903141,14.3572353 L6.61039929,16.933258 C6.89657546,17.4054316 7.40094851,17.6873403 7.95949774,17.6873403 C8.51804696,17.6873403 9.02242002,17.4054316 9.30859618,16.9332988 L10.8699641,14.3572761 L12.2072076,14.9432496 L14.3185029,19.3395397 L11.8905651,18.2753539 Z" id="Shape"></path>
                        <path d="M7.7233437,4.2 C6.40545769,4.2 5.33333333,5.25537241 5.33333333,6.55262565 C5.33333333,7.84987889 6.40545769,8.9052513 7.7233437,8.9052513 C9.04118826,8.9052921 10.1133126,7.84987889 10.1133126,6.55262565 C10.1133126,5.25537241 9.04118826,4.2 7.7233437,4.2 Z M7.7233437,7.87431995 C6.98299136,7.87436075 6.38062867,7.28149158 6.38062867,6.55262565 C6.38062867,5.82384132 6.98294991,5.23093135 7.7233437,5.23093135 C8.46369603,5.23093135 9.06601727,5.82384132 9.06601727,6.55262565 C9.06601727,7.28140997 8.46369603,7.87431995 7.7233437,7.87431995 Z" id="Shape"></path>
                    </g>
                </g>
            </g>
        </g>
    </g>
</svg>