<?xml version="1.0" encoding="UTF-8"?>
<svg width="217px" height="149px" viewBox="0 0 217 149" version="1.1" xmlns="http://www.w3.org/2000/svg" xmlns:xlink="http://www.w3.org/1999/xlink">
    <!-- Generator: Sketch 52.3 (67297) - http://www.bohemiancoding.com/sketch -->
    <title>destinos</title>
    <desc>Created with Sketch.</desc>
    <g id="DISEÑO-APP-TM" stroke="none" stroke-width="1" fill="none" fill-rule="evenodd">
        <g id="1.3-HOME-PRINCIPAL" transform="translate(-80.000000, -1455.000000)" fill="#FFFFFF">
            <rect x="0" y="0" width="375" height="1604"></rect>
            <g id="MENU-PRINCIPAL" transform="translate(0.000000, 1544.000000)" fill-rule="nonzero">
                <g id="DESTINOS" transform="translate(161.000000, 11.000000)">
                    <g id="destinos" transform="translate(19.000000, -0.000000)">
                        <path d="M16.8607358,22.0749149 L13.8879819,15.6941578 C13.8286581,15.5668385 13.7258653,15.4692821 13.6025933,15.4160574 L12.1236814,14.7479998 L14.6862332,10.3900062 C14.6923549,10.379549 14.6981244,10.3689577 14.7036296,10.3581429 C15.2131011,9.34910728 15.4714482,8.25873746 15.4714482,7.11751142 C15.4714482,5.19771155 14.7295259,3.39790197 13.382342,2.04967593 C12.0353783,0.70176272 10.2509068,-0.0262677207 8.357785,0.000724507309 C6.51914251,0.0265995073 4.78796116,0.775991347 3.48305702,2.11094471 C2.178285,3.4458087 1.45371505,5.20848163 1.44279277,7.07438642 C1.43609847,8.2146293 1.70162438,9.35009044 2.2104793,10.3580982 C2.21594044,10.3688683 2.22170987,10.3795043 2.22783163,10.3899616 L4.7903394,14.7479104 L3.30288344,15.4196325 C3.18119691,15.4745555 3.08298448,15.5719331 3.02608292,15.6941131 L0.0534171217,22.0749149 C-0.0460725156,22.2883055 -0.00410101298,22.5420503 0.158588106,22.7108411 C0.321233184,22.8796319 0.570155464,22.9279855 0.782743547,22.8319933 L4.50680054,21.1496267 L8.23085754,22.8319933 C8.37491712,22.897016 8.53941194,22.897016 8.68347153,22.8319933 L12.4075285,21.1496267 L16.1315855,22.8319933 C16.204342,22.8648398 16.2813705,22.8808385 16.3577384,22.8808385 C16.5044404,22.8808385 16.6487643,22.8219382 16.755741,22.7108858 C16.918298,22.5420503 16.9602254,22.2883948 16.8607358,22.0749149 Z M3.19295598,9.82741492 C2.76443267,8.97242269 2.54999484,8.04856453 2.55567619,7.08113448 C2.57452593,3.84434627 5.18433422,1.1745736 8.37328759,1.12975041 C9.9660907,1.1080315 11.467772,1.7196021 12.6009586,2.85367788 C13.7344974,3.98802179 14.3586969,5.5022679 14.3586969,7.11755611 C14.3586969,8.07207101 14.1442591,8.98363966 13.721285,9.82741492 L8.93494821,17.9674486 C8.78881868,18.2159201 8.55213992,18.2427336 8.45714251,18.2427336 C8.36210106,18.2427336 8.1254223,18.2159201 7.97933681,17.9674486 L3.19295598,9.82741492 Z M12.6337254,20.0158638 C12.4896658,19.9508411 12.325171,19.9508411 12.1811114,20.0158638 L8.45705443,21.6982303 L4.73299743,20.0158638 C4.58893785,19.9508411 4.42444303,19.9508411 4.28038344,20.0158638 L1.70052334,21.181356 L3.94390676,16.3661481 L5.36459588,15.7245911 L7.02354925,18.5459492 C7.32761142,19.0630917 7.8635078,19.3718489 8.45696634,19.3718489 C9.05042489,19.3718489 9.58632127,19.0630917 9.89038344,18.5459939 L11.5493368,15.7246358 L12.9701581,16.3664162 L15.2134093,21.1814007 L12.6337254,20.0158638 Z" id="Shape"></path>
                        <path d="M8.20605268,4.6 C6.80579879,4.6 5.66666667,5.75588407 5.66666667,7.17668523 C5.66666667,8.5974864 6.80579879,9.75337047 8.20605268,9.75337047 C9.60626252,9.75341516 10.7453946,8.5974864 10.7453946,7.17668523 C10.7453946,5.75588407 9.60626252,4.6 8.20605268,4.6 Z M8.20605268,8.62425518 C7.41942832,8.62429987 6.77941796,7.97496697 6.77941796,7.17668523 C6.77941796,6.37849288 7.41938428,5.72911528 8.20605268,5.72911528 C8.99267703,5.72911528 9.63264335,6.37849288 9.63264335,7.17668523 C9.63264335,7.97487759 8.99267703,8.62425518 8.20605268,8.62425518 Z" id="Shape"></path>
                    </g>
                </g>
            </g>
        </g>
    </g>
</svg>