<?xml version="1.0" encoding="UTF-8"?>
<svg width="149px" height="149px" viewBox="0 0 149 149" version="1.1" xmlns="http://www.w3.org/2000/svg" xmlns:xlink="http://www.w3.org/1999/xlink">
    <!-- Generator: Sketch 52.3 (67297) - http://www.bohemiancoding.com/sketch -->
    <title>paquetes-bol</title>
    <desc>Created with Sketch.</desc>
    <g id="DISEÑO-APP-TM" stroke="none" stroke-width="1" fill="none" fill-rule="evenodd">
        <g id="1.3-HOME-PRINCIPAL" transform="translate(0.000000, -1455.000000)" fill="#FFFFFF">
            <rect x="0" y="0" width="375" height="1604"></rect>
            <g id="MENU-PRINCIPAL" transform="translate(0.000000, 1544.000000)">
                <g id="PAQUETES" transform="translate(11.000000, 11.000000)">
                    <g id="paquetes-bol" transform="translate(15.000000, 0.000000)">
                        <path d="M20.155457,5.75983789 L19.6789707,6.23636914 C19.2896328,6.62570703 18.7719531,6.84011914 18.2213008,6.84011914 C17.6706484,6.84011914 17.1530586,6.62570703 16.7636758,6.23636914 C16.3743379,5.84703125 16.1599258,5.32935156 16.1599258,4.77874414 C16.1599258,4.22813672 16.3743379,3.71045703 16.7636758,3.32107422 L17.240207,2.84454297 L14.3956191,0 L0,14.3956191 L2.84454297,17.2401621 L3.32107422,16.7636309 C3.71041211,16.374293 4.2280918,16.1598809 4.77874414,16.1598809 C5.32939648,16.1598809 5.84698633,16.374293 6.23636914,16.7636309 C6.62570703,17.1529687 6.84011914,17.6706484 6.84011914,18.2212559 C6.84011914,18.7718633 6.62570703,19.289543 6.23636914,19.6789258 L5.75983789,20.155457 L8.60438086,23 L23,8.60438086 L20.155457,5.75983789 Z M7.54141278,20.1641494 C7.91143427,19.6096787 8.11021356,18.9584912 8.11021356,18.2767568 C8.11021356,17.3661006 7.75560028,16.5099795 7.1116452,15.8660693 C6.46773505,15.2221143 5.61156903,14.867501 4.7009577,14.867501 C4.01922333,14.867501 3.36803583,15.0662803 2.81356512,15.4363018 L1.77524091,14.3747347 L14.3905587,1.73152771 L15.4879566,2.82602252 C15.1179351,3.38049323 14.9191558,4.03168073 14.9191558,4.7134151 C14.9191558,5.62407135 15.2737691,6.48019244 15.9177242,7.1241026 C16.5616343,7.76805768 17.4178004,8.12267096 18.3284117,8.12267096 C19.0101461,8.12267096 19.6613336,7.92389166 20.2158043,7.55387018 L21.2746943,8.62066644 L8.60025787,21.2309906 L7.54141278,20.1641494 Z" id="Shape" fill-rule="nonzero"></path>
                        <polygon id="Rectangle" fill-rule="evenodd" transform="translate(14.996458, 11.134421) rotate(-45.000000) translate(-14.996458, -11.134421) " points="14.321772 9.81408295 15.6695951 9.81408295 15.6711439 12.45476 14.3233209 12.45476"></polygon>
                        <polygon id="Rectangle-Copy" fill-rule="evenodd" transform="translate(11.993899, 8.129148) rotate(-45.000000) translate(-11.993899, -8.129148) " points="11.3192126 6.80880951 12.6670356 6.80880951 12.6685845 9.44948657 11.3207615 9.44948657"></polygon>
                    </g>
                </g>
            </g>
        </g>
    </g>
</svg>