<?xml version="1.0" encoding="UTF-8"?>
<svg width="23px" height="23px" viewBox="0 0 23 23" version="1.1" xmlns="http://www.w3.org/2000/svg" xmlns:xlink="http://www.w3.org/1999/xlink">
    <!-- Generator: sketchtool 52.3 (67297) - http://www.bohemiancoding.com/sketch -->
    <title>336B0C94-FFA5-404E-AF61-0A0842994A0A</title>
    <desc>Created with sketchtool.</desc>
    <g id="DISEÑO-APP-TM" stroke="none" stroke-width="1" fill="none" fill-rule="evenodd">
        <g id="2.2-NOTIFICACIÓN-CUENTA-CREADA" transform="translate(-100.000000, -618.000000)" fill="#FFFFFF" fill-rule="nonzero">
            <g id="MENU-PRINCIPAL" transform="translate(0.000000, 607.000000)">
                <g id="RUTAS" transform="translate(93.000000, 11.000000)">
                    <g transform="translate(7.000000, 0.000000)" id="Shape">
                        <path d="M22.069376,9.31355944 C21.994527,9.17129545 21.8471942,9.08242272 21.6866826,9.08242272 L14.506238,9.08242272 L14.506238,8.30149148 L21.6866826,8.30149148 C21.8471942,8.30149148 21.994527,8.21244981 22.069376,8.07035476 L22.9511761,6.39495148 C23.0175773,6.26890765 23.0175773,6.11819569 22.9511761,5.99215182 L22.069376,4.31674853 C21.994527,4.17465353 21.8471942,4.08561181 21.6866826,4.08561181 L14.506238,4.08561181 L14.506238,1.86683449 C14.506238,1.7735688 14.4759942,1.68266856 14.4200686,1.60781945 C12.5647952,0.535939817 11.5917646,8.34887715e-14 11.500977,8.34887715e-14 C11.4100768,8.34887715e-14 10.4369899,0.535939817 8.58171641,1.60781945 C8.52579082,1.68266856 8.49554704,1.7735688 8.49554704,1.86683449 L8.49554704,6.58401727 L1.3151024,6.58401727 C1.15459082,6.58401727 1.00725805,6.67305898 0.932408945,6.81515399 L0.0507778308,8.49055727 C-0.0156232769,8.61660115 -0.0156232769,8.76731306 0.0507778308,8.89335693 L0.932408945,10.5687602 C1.00725805,10.7110242 1.15459082,10.7998969 1.3151024,10.7998969 L8.49554704,10.7998969 L8.49554704,15.6404202 C8.49554704,15.8793291 8.68917476,16.0729567 8.92808359,16.0729567 C9.16699243,16.0729567 9.36062014,15.8793291 9.36062014,15.6404202 L9.36062014,2.26654053 L11.500977,1.06231689 L13.6411649,2.26654053 L13.6411649,21.2807982 L9.36062014,21.2807982 L9.36062014,15.1926773 C9.36062014,14.9539374 9.16699243,14.7601407 8.92808359,14.7601407 C8.68917476,14.7601407 8.49554704,14.9539374 8.49554704,15.1926773 L8.49554704,21.2807982 L5.52591331,21.2807982 C5.28700447,21.2807982 5.09337676,21.4744258 5.09337676,21.7133347 C5.09337676,21.9522436 5.28700447,22.1458713 5.52591331,22.1458713 L17.4760407,22.1458713 C17.7147806,22.1458713 17.9085772,21.9522436 17.9085772,21.7133347 C17.9085772,21.4744258 17.7147806,21.2807982 17.4760407,21.2807982 L14.506238,21.2807982 L14.506238,13.2983024 L21.6866826,13.2983024 C21.8471942,13.2983024 21.994527,13.2092607 22.069376,13.0671657 L22.9511761,11.3917624 C23.0175773,11.2657185 23.0175773,11.1150066 22.9511761,10.9889627 L22.069376,9.31355944 Z M0.92227137,8.6919571 L1.57631395,7.44925931 L8.49554704,7.44925931 L8.49554704,9.93499279 L1.57631395,9.93499279 L0.92227137,8.6919571 Z M21.4254711,4.95068491 L22.0795136,6.19355165 L21.4254711,7.43641839 L14.506238,7.43641839 L14.506238,4.95068491 L21.4254711,4.95068491 Z M21.4254711,12.4332293 L14.506238,12.4332293 L14.506238,9.94749582 L21.4254711,9.94749582 L22.0795136,11.1903626 L21.4254711,12.4332293 Z"></path>
                    </g>
                </g>
            </g>
        </g>
    </g>
</svg>