<?xml version="1.0" encoding="UTF-8"?>
<svg width="20px" height="22px" viewBox="0 0 20 22" version="1.1" xmlns="http://www.w3.org/2000/svg" xmlns:xlink="http://www.w3.org/1999/xlink">
    <!-- Generator: Sketch 52.3 (67297) - http://www.bohemiancoding.com/sketch -->
    <title>SHARE</title>
    <desc>Created with Sketch.</desc>
    <g id="DISEÑO-APP" stroke="none" stroke-width="1" fill="none" fill-rule="evenodd">
        <g id="SHARE" fill="#01111A" fill-rule="nonzero">
            <path d="M16.2026432,13.6299559 C14.9823789,13.6299559 13.8942731,14.2114537 13.1982379,15.1101322 L7.37004405,11.8546256 C7.50660793,11.4625551 7.5814978,11.0396476 7.5814978,10.6035242 C7.5814978,10.1629956 7.50660793,9.74449339 7.36563877,9.34801762 L13.1894273,6.0969163 C13.8810573,7 14.9735683,7.58590308 16.1982379,7.58590308 C18.2863436,7.58590308 19.9911894,5.88546256 19.9911894,3.79295154 C19.9911894,1.70044053 18.2907489,1.26121336e-13 16.1982379,1.26121336e-13 C14.1057269,1.26121336e-13 12.4052863,1.70044053 12.4052863,3.79295154 C12.4052863,4.23348018 12.4801762,4.65638767 12.6211454,5.04845815 L6.80176211,8.29955947 C6.11013216,7.39207048 5.01762115,6.81057269 3.79295154,6.81057269 C1.70484581,6.81057269 0,8.51101322 0,10.6035242 C0,12.6960352 1.70484581,14.3964758 3.79735683,14.3964758 C5.02202643,14.3964758 6.11453744,13.8105727 6.81057269,12.9030837 L12.6343612,16.1585903 C12.4933921,16.5550661 12.4140969,16.9823789 12.4140969,17.4229075 C12.4140969,19.5110132 14.1145374,21.215859 16.2070485,21.215859 C18.2995595,21.215859 20,19.5154185 20,17.4229075 C20,15.3303965 18.2951542,13.6299559 16.2026432,13.6299559 Z M16.2026432,1.1938326 C17.6387665,1.1938326 18.8061674,2.36123348 18.8061674,3.79735683 C18.8061674,5.23348018 17.6387665,6.40088106 16.2026432,6.40088106 C14.7665198,6.40088106 13.5991189,5.23348018 13.5991189,3.79735683 C13.5991189,2.36123348 14.7709251,1.1938326 16.2026432,1.1938326 Z M3.79735683,13.2070485 C2.36123348,13.2070485 1.1938326,12.0396476 1.1938326,10.6035242 C1.1938326,9.16740088 2.36123348,8 3.79735683,8 C5.23348018,8 6.40088106,9.16740088 6.40088106,10.6035242 C6.40088106,12.0396476 5.22907489,13.2070485 3.79735683,13.2070485 Z M16.2026432,20.0220264 C14.7665198,20.0220264 13.5991189,18.8546256 13.5991189,17.4185022 C13.5991189,15.9823789 14.7665198,14.814978 16.2026432,14.814978 C17.6387665,14.814978 18.8061674,15.9823789 18.8061674,17.4185022 C18.8061674,18.8546256 17.6387665,20.0220264 16.2026432,20.0220264 Z" id="Shape"></path>
        </g>
    </g>
</svg>